<svg width="2599" height="436" viewBox="0 0 2599 436" fill="none" xmlns="http://www.w3.org/2000/svg">
<path fill-rule="evenodd" clip-rule="evenodd" d="M0.0998781 3.60073C1.32648 5.55753 32.9968 49.0077 70.4773 100.154C107.958 151.301 139.551 194.63 140.686 196.441C141.82 198.252 111.711 247.294 73.779 305.428L4.80953 411.119L83.7579 411.932C152.045 412.633 163.173 412.111 166.177 408.055C168.089 405.476 181.702 382.237 196.43 356.411L223.206 309.453L297.967 412.499L462.63 412.636L450.749 396.709C399.483 327.993 316.938 213.349 316.932 210.855C316.929 209.165 347.333 162.748 384.494 107.706C421.658 52.6604 453.097 5.91856 454.358 3.83131C456.168 0.836954 439.878 0.0390608 376.913 0.0390608H297.171L267.25 51.8806C250.794 80.3923 236.281 102.575 234.996 101.18C233.714 99.7813 216.48 76.4544 196.704 49.3383L160.742 0.0390608H79.3064C17.7642 0.0390608 -1.58478 0.909753 0.0998781 3.60073Z" fill="#D80100"/>
<path fill-rule="evenodd" clip-rule="evenodd" d="M632.288 5.65508C577.537 20.1806 536.413 52.9222 510.045 102.981C492.077 137.092 486.123 164.853 486.332 213.522C486.504 253.639 493.648 285.018 510.183 318.306C525.233 348.601 562.721 386.359 591.18 399.886C669.296 437.023 771.218 423.808 824.776 369.6C850.874 343.184 868.83 307.146 873.757 271.287L876.032 254.732H770.157L768.012 266.113C759.192 312.909 729.408 335.854 681.147 333.028C654.098 331.444 642.688 326.673 626.356 310.114C599.75 283.142 587.374 234.53 594.334 184.347C598.856 151.739 607.146 130.894 622.396 113.789C638.449 95.7855 655.285 87.3876 679.109 85.4999C723.097 82.0127 753.991 100.332 766.18 137.125L769.948 148.506H873.834L872.033 138.643C860.69 76.5649 821.509 31.489 759.884 9.61879C728.978 -1.3497 666.062 -3.30424 632.288 5.65508ZM2203.35 4.02828C2161.03 14.1773 2122.84 41.3042 2107.62 72.0093C2096.53 94.3893 2094.05 133.602 2102.13 158.953C2114.22 196.915 2143.37 215.413 2234.12 242.725C2318.67 268.167 2328.5 274.025 2328.5 298.954C2328.5 325.951 2308.49 339.241 2267.4 339.548C2227.6 339.842 2196.38 321.99 2191.09 295.919C2186.71 274.341 2191.38 275.977 2134.12 275.977H2082.07L2082.11 287.358C2082.2 317.11 2098.96 352.883 2123.56 375.855C2156.73 406.827 2196.83 419.471 2261.9 419.471C2310.98 419.471 2339.82 413.553 2371.18 397.049C2417.42 372.717 2444.02 320.212 2435.77 269.591C2431.64 244.282 2422.78 227.586 2404.55 210.748C2380.06 188.131 2357.31 179.202 2253.18 151.335C2209.2 139.568 2198.88 132.591 2198.88 114.618C2198.88 90.9447 2224.9 76.5709 2262.41 79.5118C2294.32 82.0126 2313.66 95.485 2318.43 118.53L2320.55 128.779L2420.21 130.448V120.387C2420.21 103.986 2411.84 77.1172 2401.61 60.7069C2384.17 32.7273 2354.88 13.6523 2315.15 4.40465C2291.52 -1.09477 2225.63 -1.31635 2203.35 4.02828ZM1319.72 96.9115H1439.6V409.517H1547.3L1546.97 98.429L1667.08 96.784V8.89644H1319.72V96.9115ZM1716.26 409.517H2048.26V324.536H1823.85V245.711L2022.13 244.109L2023.84 163.763L1823.38 162.164V95.394L2042.11 93.8006V8.89644H1716.26V409.517ZM2493.99 409.517H2598.5V8.89644H2493.99V409.517Z" fill="#0176FF"/>
<path d="M1295.95 348.085V313.28H1324.42C1319.51 328.192 1313.11 335.776 1295.95 348.085Z" fill="#0176FF"/>
<path d="M1273.8 69.6473H1261.14V101.288H1292.78C1289.7 86.5588 1285.55 79.6262 1273.8 69.6473Z" fill="#0176FF"/>
<path d="M1220.01 63.3192V34.8426C1236.29 41.1548 1243.49 47.064 1251.65 63.3192H1220.01Z" fill="#0176FF"/>
<path d="M925.75 213.708C925.75 75.9754 1039.28 14.6812 1151.98 17.4402V55.409C1045.98 55.409 974.793 107.711 966.883 213.708H925.75Z" fill="#D80100"/>
<path d="M1136.16 435.096C998.429 435.096 923.08 334.225 925.839 221.522H966.883C966.883 327.518 1030.16 387.636 1136.16 395.546V435.096Z" fill="#0176FF"/>
<path d="M1172.55 166.151C1172.55 177.51 1163.34 186.718 1151.98 186.718C1140.62 186.718 1131.41 177.51 1131.41 166.151C1131.41 154.793 1140.62 145.585 1151.98 145.585C1163.34 145.585 1172.55 154.793 1172.55 166.151Z" fill="#D80100"/>
<path d="M1175.71 149.749C1175.71 149.197 1176.16 148.749 1176.71 148.749H1212.68C1213.23 148.749 1213.68 149.197 1213.68 149.749V185.718C1213.68 186.27 1213.23 186.718 1212.68 186.718H1176.71C1176.16 186.718 1175.71 186.27 1175.71 185.718V149.749Z" fill="#2F9E41"/>
<path d="M1216.84 149.749C1216.84 149.197 1217.29 148.749 1217.84 148.749H1253.81C1254.37 148.749 1254.81 149.197 1254.81 149.749V185.718C1254.81 186.27 1254.37 186.718 1253.81 186.718H1217.84C1217.29 186.718 1216.84 186.27 1216.84 185.718V149.749Z" fill="#2F9E41"/>
<path d="M1175.71 190.882C1175.71 190.329 1176.16 189.882 1176.71 189.882H1212.68C1213.23 189.882 1213.68 190.329 1213.68 190.882V226.85C1213.68 227.403 1213.23 227.85 1212.68 227.85H1176.71C1176.16 227.85 1175.71 227.403 1175.71 226.85V190.882Z" fill="#2F9E41"/>
<path d="M1175.71 232.014C1175.71 231.462 1176.16 231.014 1176.71 231.014H1212.68C1213.23 231.014 1213.68 231.462 1213.68 232.014V267.983C1213.68 268.536 1213.23 268.983 1212.68 268.983H1176.71C1176.16 268.983 1175.71 268.536 1175.71 267.983V232.014Z" fill="#2F9E41"/>
<path d="M1175.71 273.147C1175.71 272.595 1176.16 272.147 1176.71 272.147H1212.68C1213.23 272.147 1213.68 272.595 1213.68 273.147V309.116C1213.68 309.668 1213.23 310.116 1212.68 310.116H1176.71C1176.16 310.116 1175.71 309.668 1175.71 309.116V273.147Z" fill="#2F9E41"/>
<path d="M1134.58 273.147C1134.58 272.595 1135.03 272.147 1135.58 272.147H1171.55C1172.1 272.147 1172.55 272.595 1172.55 273.147V309.116C1172.55 309.668 1172.1 310.116 1171.55 310.116H1135.58C1135.03 310.116 1134.58 309.668 1134.58 309.116V273.147Z" fill="#2F9E41"/>
<path d="M1216.84 232.014C1216.84 231.462 1217.29 231.014 1217.84 231.014H1253.81C1254.37 231.014 1254.81 231.462 1254.81 232.014V267.983C1254.81 268.536 1254.37 268.983 1253.81 268.983H1217.84C1217.29 268.983 1216.84 268.536 1216.84 267.983V232.014Z" fill="#2F9E41"/>
<path d="M1257.98 190.882C1257.98 190.329 1258.42 189.882 1258.98 189.882H1294.95C1295.5 189.882 1295.95 190.329 1295.95 190.882V226.85C1295.95 227.403 1295.5 227.85 1294.95 227.85H1258.98C1258.42 227.85 1257.98 227.403 1257.98 226.85V190.882Z" fill="#0176FF"/>
<path d="M1292.78 149.749C1292.78 149.197 1293.23 148.749 1293.78 148.749H1329.75C1330.3 148.749 1330.75 149.197 1330.75 149.749V185.718C1330.75 186.27 1330.3 186.718 1329.75 186.718H1293.78C1293.23 186.718 1292.78 186.27 1292.78 185.718V149.749Z" fill="#0176FF"/>
<path d="M1093.45 190.882C1093.45 190.329 1093.89 189.882 1094.45 189.882H1130.41C1130.97 189.882 1131.41 190.329 1131.41 190.882V226.85C1131.41 227.403 1130.97 227.85 1130.41 227.85H1094.45C1093.89 227.85 1093.45 227.403 1093.45 226.85V190.882Z" fill="#0176FF"/>
<path d="M1052.31 190.882C1052.31 190.329 1052.76 189.882 1053.31 189.882H1089.28C1089.83 189.882 1090.28 190.329 1090.28 190.882V226.85C1090.28 227.403 1089.83 227.85 1089.28 227.85H1053.31C1052.76 227.85 1052.31 227.403 1052.31 226.85V190.882Z" fill="#0176FF"/>
<path d="M1134.58 190.882C1134.58 190.329 1135.03 189.882 1135.58 189.882H1171.55C1172.1 189.882 1172.55 190.329 1172.55 190.882V226.85C1172.55 227.403 1172.1 227.85 1171.55 227.85H1135.58C1135.03 227.85 1134.58 227.403 1134.58 226.85V190.882Z" fill="#2F9E41"/>
<path d="M1134.58 232.014C1134.58 231.462 1135.03 231.014 1135.58 231.014H1171.55C1172.1 231.014 1172.55 231.462 1172.55 232.014V267.983C1172.55 268.536 1172.1 268.983 1171.55 268.983H1135.58C1135.03 268.983 1134.58 268.536 1134.58 267.983V232.014Z" fill="#2F9E41"/>
<path d="M1093.45 273.147C1093.45 272.595 1093.89 272.147 1094.45 272.147H1130.41C1130.97 272.147 1131.41 272.595 1131.41 273.147V309.116C1131.41 309.668 1130.97 310.116 1130.41 310.116H1094.45C1093.89 310.116 1093.45 309.668 1093.45 309.116V273.147Z" fill="#0176FF"/>
<path d="M1093.45 314.28C1093.45 313.728 1093.89 313.28 1094.45 313.28H1127.25C1127.8 313.28 1128.25 313.728 1128.25 314.28V347.085C1128.25 347.637 1127.8 348.085 1127.25 348.085H1094.45C1093.89 348.085 1093.45 347.637 1093.45 347.085V314.28Z" fill="#0176FF"/>
<path d="M1093.45 352.249C1093.45 351.697 1093.89 351.249 1094.45 351.249H1127.25C1127.8 351.249 1128.25 351.697 1128.25 352.249V385.054C1128.25 385.606 1127.8 386.054 1127.25 386.054H1094.45C1093.89 386.054 1093.45 385.606 1093.45 385.054V352.249Z" fill="#0176FF"/>
<path d="M1131.41 349.085C1131.41 348.532 1131.86 348.085 1132.41 348.085H1168.38C1168.94 348.085 1169.38 348.532 1169.38 349.085V385.054C1169.38 385.606 1168.94 386.054 1168.38 386.054H1132.41C1131.86 386.054 1131.41 385.606 1131.41 385.054V349.085Z" fill="#0176FF"/>
<path d="M1172.55 349.085C1172.55 348.532 1173 348.085 1173.55 348.085H1209.52C1210.07 348.085 1210.52 348.532 1210.52 349.085V385.054C1210.52 385.606 1210.07 386.054 1209.52 386.054H1173.55C1173 386.054 1172.55 385.606 1172.55 385.054V349.085Z" fill="#0176FF"/>
<path d="M1052.31 314.28C1052.31 313.728 1052.76 313.28 1053.31 313.28H1086.12C1086.67 313.28 1087.12 313.728 1087.12 314.28V347.085C1087.12 347.637 1086.67 348.085 1086.12 348.085H1053.31C1052.76 348.085 1052.31 347.637 1052.31 347.085V314.28Z" fill="#0176FF"/>
<path d="M1216.84 311.116C1216.84 310.564 1217.29 310.116 1217.84 310.116H1253.81C1254.37 310.116 1254.81 310.564 1254.81 311.116V347.085C1254.81 347.637 1254.37 348.085 1253.81 348.085H1217.84C1217.29 348.085 1216.84 347.637 1216.84 347.085V311.116Z" fill="#0176FF"/>
<path d="M1257.98 273.147C1257.98 272.595 1258.42 272.147 1258.98 272.147H1294.95C1295.5 272.147 1295.95 272.595 1295.95 273.147V309.116C1295.95 309.668 1295.5 310.116 1294.95 310.116H1258.98C1258.42 310.116 1257.98 309.668 1257.98 309.116V273.147Z" fill="#0176FF"/>
<path d="M1134.58 102.288C1134.58 101.736 1135.03 101.288 1135.58 101.288H1171.55C1172.1 101.288 1172.55 101.736 1172.55 102.288V138.257C1172.55 138.809 1172.1 139.257 1171.55 139.257H1135.58C1135.03 139.257 1134.58 138.809 1134.58 138.257V102.288Z" fill="#0176FF"/>
<path d="M1093.45 67.4832C1093.45 66.931 1093.89 66.4832 1094.45 66.4832H1130.41C1130.97 66.4832 1131.41 66.931 1131.41 67.4832V103.452C1131.41 104.004 1130.97 104.452 1130.41 104.452H1094.45C1093.89 104.452 1093.45 104.004 1093.45 103.452V67.4832Z" fill="#0176FF"/>
<path d="M1295.6 348.085V313.28H1324.08C1319.17 328.192 1312.76 335.776 1295.6 348.085Z" fill="#0176FF"/>
<path d="M1273.45 69.6473H1260.8V101.288H1292.44C1289.36 86.5588 1285.21 79.6262 1273.45 69.6473Z" fill="#0176FF"/>
<path d="M1219.66 63.3192V34.8426C1235.95 41.1548 1243.14 47.064 1251.3 63.3192H1219.66Z" fill="#0176FF"/>
<path d="M925.405 213.708C925.405 75.9754 1038.93 14.6812 1151.64 17.4402V55.409C1045.64 55.409 974.448 107.711 966.538 213.708H925.405Z" fill="#D80100"/>
<path d="M1135.82 435.096C998.083 435.096 922.735 334.225 925.494 221.522H966.538C966.538 327.518 1029.82 387.636 1135.82 395.546V435.096Z" fill="#0176FF"/>
<path d="M1172.2 166.151C1172.2 177.51 1162.99 186.718 1151.64 186.718C1140.28 186.718 1131.07 177.51 1131.07 166.151C1131.07 154.793 1140.28 145.585 1151.64 145.585C1162.99 145.585 1172.2 154.793 1172.2 166.151Z" fill="#D80100"/>
<path d="M1175.37 149.749C1175.37 149.197 1175.81 148.749 1176.37 148.749H1212.34C1212.89 148.749 1213.34 149.197 1213.34 149.749V185.718C1213.34 186.27 1212.89 186.718 1212.34 186.718H1176.37C1175.81 186.718 1175.37 186.27 1175.37 185.718V149.749Z" fill="#2F9E41"/>
<path d="M1216.5 149.749C1216.5 149.197 1216.95 148.749 1217.5 148.749H1253.47C1254.02 148.749 1254.47 149.197 1254.47 149.749V185.718C1254.47 186.27 1254.02 186.718 1253.47 186.718H1217.5C1216.95 186.718 1216.5 186.27 1216.5 185.718V149.749Z" fill="#2F9E41"/>
<path d="M1175.37 190.882C1175.37 190.329 1175.81 189.882 1176.37 189.882H1212.33C1212.89 189.882 1213.33 190.329 1213.33 190.882V226.85C1213.33 227.403 1212.89 227.85 1212.33 227.85H1176.37C1175.81 227.85 1175.37 227.403 1175.37 226.85V190.882Z" fill="#2F9E41"/>
<path d="M1175.37 232.014C1175.37 231.462 1175.81 231.014 1176.37 231.014H1212.33C1212.89 231.014 1213.33 231.462 1213.33 232.014V267.983C1213.33 268.536 1212.89 268.983 1212.33 268.983H1176.37C1175.81 268.983 1175.37 268.536 1175.37 267.983V232.014Z" fill="#2F9E41"/>
<path d="M1175.37 273.147C1175.37 272.595 1175.81 272.147 1176.37 272.147H1212.33C1212.89 272.147 1213.33 272.595 1213.33 273.147V309.116C1213.33 309.668 1212.89 310.116 1212.33 310.116H1176.37C1175.81 310.116 1175.37 309.668 1175.37 309.116V273.147Z" fill="#2F9E41"/>
<path d="M1134.23 273.147C1134.23 272.595 1134.68 272.147 1135.23 272.147H1171.2C1171.75 272.147 1172.2 272.595 1172.2 273.147V309.116C1172.2 309.668 1171.75 310.116 1171.2 310.116H1135.23C1134.68 310.116 1134.23 309.668 1134.23 309.116V273.147Z" fill="#2F9E41"/>
<path d="M1216.5 232.014C1216.5 231.462 1216.95 231.014 1217.5 231.014H1253.47C1254.02 231.014 1254.47 231.462 1254.47 232.014V267.983C1254.47 268.536 1254.02 268.983 1253.47 268.983H1217.5C1216.95 268.983 1216.5 268.536 1216.5 267.983V232.014Z" fill="#2F9E41"/>
<path d="M1257.63 190.882C1257.63 190.329 1258.08 189.882 1258.63 189.882H1294.6C1295.15 189.882 1295.6 190.329 1295.6 190.882V226.85C1295.6 227.403 1295.15 227.85 1294.6 227.85H1258.63C1258.08 227.85 1257.63 227.403 1257.63 226.85V190.882Z" fill="#0176FF"/>
<path d="M1292.44 149.749C1292.44 149.197 1292.88 148.749 1293.44 148.749H1329.41C1329.96 148.749 1330.41 149.197 1330.41 149.749V185.718C1330.41 186.27 1329.96 186.718 1329.41 186.718H1293.44C1292.88 186.718 1292.44 186.27 1292.44 185.718V149.749Z" fill="#0176FF"/>
<path d="M1093.1 190.882C1093.1 190.329 1093.55 189.882 1094.1 189.882H1130.07C1130.62 189.882 1131.07 190.329 1131.07 190.882V226.85C1131.07 227.403 1130.62 227.85 1130.07 227.85H1094.1C1093.55 227.85 1093.1 227.403 1093.1 226.85V190.882Z" fill="#0176FF"/>
<path d="M1051.97 190.882C1051.97 190.329 1052.42 189.882 1052.97 189.882H1088.94C1089.49 189.882 1089.94 190.329 1089.94 190.882V226.85C1089.94 227.403 1089.49 227.85 1088.94 227.85H1052.97C1052.42 227.85 1051.97 227.403 1051.97 226.85V190.882Z" fill="#0176FF"/>
<path d="M1134.23 190.882C1134.23 190.329 1134.68 189.882 1135.23 189.882H1171.2C1171.75 189.882 1172.2 190.329 1172.2 190.882V226.85C1172.2 227.403 1171.75 227.85 1171.2 227.85H1135.23C1134.68 227.85 1134.23 227.403 1134.23 226.85V190.882Z" fill="#2F9E41"/>
<path d="M1134.23 232.014C1134.23 231.462 1134.68 231.014 1135.23 231.014H1171.2C1171.75 231.014 1172.2 231.462 1172.2 232.014V267.983C1172.2 268.536 1171.75 268.983 1171.2 268.983H1135.23C1134.68 268.983 1134.23 268.536 1134.23 267.983V232.014Z" fill="#2F9E41"/>
<path d="M1093.1 273.147C1093.1 272.595 1093.55 272.147 1094.1 272.147H1130.07C1130.62 272.147 1131.07 272.595 1131.07 273.147V309.116C1131.07 309.668 1130.62 310.116 1130.07 310.116H1094.1C1093.55 310.116 1093.1 309.668 1093.1 309.116V273.147Z" fill="#0176FF"/>
<path d="M1093.1 314.28C1093.1 313.728 1093.55 313.28 1094.1 313.28H1126.91C1127.46 313.28 1127.91 313.728 1127.91 314.28V347.085C1127.91 347.637 1127.46 348.085 1126.91 348.085H1094.1C1093.55 348.085 1093.1 347.637 1093.1 347.085V314.28Z" fill="#0176FF"/>
<path d="M1093.1 352.249C1093.1 351.697 1093.55 351.249 1094.1 351.249H1126.91C1127.46 351.249 1127.91 351.697 1127.91 352.249V385.054C1127.91 385.606 1127.46 386.054 1126.91 386.054H1094.1C1093.55 386.054 1093.1 385.606 1093.1 385.054V352.249Z" fill="#0176FF"/>
<path d="M1131.07 349.085C1131.07 348.532 1131.52 348.085 1132.07 348.085H1168.04C1168.59 348.085 1169.04 348.532 1169.04 349.085V385.054C1169.04 385.606 1168.59 386.054 1168.04 386.054H1132.07C1131.52 386.054 1131.07 385.606 1131.07 385.054V349.085Z" fill="#0176FF"/>
<path d="M1172.2 349.085C1172.2 348.532 1172.65 348.085 1173.2 348.085H1209.17C1209.72 348.085 1210.17 348.532 1210.17 349.085V385.054C1210.17 385.606 1209.72 386.054 1209.17 386.054H1173.2C1172.65 386.054 1172.2 385.606 1172.2 385.054V349.085Z" fill="#0176FF"/>
<path d="M1051.97 314.28C1051.97 313.728 1052.42 313.28 1052.97 313.28H1085.77C1086.32 313.28 1086.77 313.728 1086.77 314.28V347.085C1086.77 347.637 1086.32 348.085 1085.77 348.085H1052.97C1052.42 348.085 1051.97 347.637 1051.97 347.085V314.28Z" fill="#0176FF"/>
<path d="M1216.5 311.116C1216.5 310.564 1216.95 310.116 1217.5 310.116H1253.47C1254.02 310.116 1254.47 310.564 1254.47 311.116V347.085C1254.47 347.637 1254.02 348.085 1253.47 348.085H1217.5C1216.95 348.085 1216.5 347.637 1216.5 347.085V311.116Z" fill="#0176FF"/>
<path d="M1257.63 273.147C1257.63 272.595 1258.08 272.147 1258.63 272.147H1294.6C1295.15 272.147 1295.6 272.595 1295.6 273.147V309.116C1295.6 309.668 1295.15 310.116 1294.6 310.116H1258.63C1258.08 310.116 1257.63 309.668 1257.63 309.116V273.147Z" fill="#0176FF"/>
<path d="M1134.23 102.288C1134.23 101.736 1134.68 101.288 1135.23 101.288H1171.2C1171.75 101.288 1172.2 101.736 1172.2 102.288V138.257C1172.2 138.809 1171.75 139.257 1171.2 139.257H1135.23C1134.68 139.257 1134.23 138.809 1134.23 138.257V102.288Z" fill="#0176FF"/>
<path d="M1093.1 67.4832C1093.1 66.931 1093.55 66.4832 1094.1 66.4832H1130.07C1130.62 66.4832 1131.07 66.931 1131.07 67.4832V103.452C1131.07 104.004 1130.62 104.452 1130.07 104.452H1094.1C1093.55 104.452 1093.1 104.004 1093.1 103.452V67.4832Z" fill="#0176FF"/>
</svg>
